<svg version="1.0" xmlns="http://www.w3.org/2000/svg" width="341.333" height="341.333" viewBox="0 0 256 256"><path d="M0 103.1v103.1l4-3.6c2.2-1.9 5.1-3.8 6.6-4.2 8.4-2.1 24.5 3.3 31.3 10.4 3.1 3.2 4.1 5.7 7 16.2 1.9 6.9 4.7 16.7 6.3 21.8l2.9 9.2H144.8l.6-2.7c.3-1.6 1.2-9.3 2.1-17.3 2-19.2 2.5-22.1 3.5-21.5 1.4.9 6.8 18.4 9.3 30 2.3 10.9 2.4 11 5.3 11.3l3 .3 1.3-11.9c1.3-11.5 1.3-12-.8-16.7-1.2-2.7-3.3-6.3-4.6-8.1-2.7-3.5-3.1-6.4-1.5-9.5 1.4-2.5 3.2-2.4 5.7.4 1.7 1.8 2.7 6.3 5.3 22.7 3.4 21.8 3.9 24.3 4.7 22.3.3-.7-.5-7.3-1.6-14.8-1.2-7.4-2.1-14.3-2.1-15.4 0-4.8 27.6-9.9 39-7.2 4.1.9 4.7.8 7-1.4 2.8-2.7 7.7-4.8 9.6-4.1.6.2 1.7 2 2.4 4 .9 3 .8 4.2-1 8.5-1.2 2.7-2.9 5.2-3.7 5.6-2.5.9-2.4.1.2-3.5 4.3-5.9 1.7-4.6-5.8 2.7-4.3 4.2-8.2 7.3-9.7 7.5-1.4.2-2.4.7-2.3 1.2.5 1.7 5.4 1.2 7.1-.8 2.2-2.4 12.1-6.9 13.8-6.2 1 .4 1.4 2.7 1.4 8.1 0 4.1.5 9.5 1.2 12l1.2 4.5H256v-31c0-24.2-.3-31-1.2-31-.7.1-2.9.9-4.8 1.8-3.4 1.7-3.5 1.9-5 11.2-1 6-2.3 10.8-3.7 13-1.3 1.9-2.7 5.9-3.3 9-.6 3-1.5 7.1-1.9 9-.9 3.4-.9 3.4-1-1.5-.1-2.8-.6-5.6-1.2-6.2-.8-.8-.6-1.9.5-4.1 2.1-4 2-8.9-.3-13.1-1.4-2.7-1.6-4-.8-6.1 1.3-3.4-.3-7.7-4.4-12.1-2.1-2.3-2.9-4.1-2.9-6.9v-3.7l-5.7-1.1c-3.2-.6-8.3-1.4-11.4-1.7l-5.6-.7 1-5.1c.5-2.9 1-13.9 1.2-24.6l.2-19.4 2.7-1.4c3.3-1.7 3.4-.5.6 6.9-4.7 12.4-1.7 10.3 9.3-6.6 2.7-4.2 4.1-5.2 9.2-7 6.9-2.5 13.7-6.9 20.2-13.2 4.7-4.4 5.1-6.1 2.9-12.9-.5-1.4.2-3 2.4-5.3l3-3.3V59.2c0-27.9-.1-29.5-1.6-26.5-.9 1.8-2 3.3-2.4 3.3-.5 0-1.8-5.5-3-12.3C247.8 17 246.1 9 245.2 6L243.5.5 121.8.2 0 0v103.1zm110.4-38.8c-2.2 2.4-4.9 5.5-6.1 7-1.3 1.5-3.1 2.7-4 2.7-2 .1-6.4 3-4.4 3 .7 0 2.1-.5 3.3-1.1 2.9-1.6 3.1-.7.8 4.5-1.1 2.6-2 5.2-2 5.7s2.2-.7 4.9-2.6c2.6-1.9 6.8-4.2 9.2-5.1 6.3-2.3 16.4-2.2 21.9.3l4.5 1.9L136 82c-3.9 2.1-12.1 4-18 4.1-5.4.1-5.5.1-2 1.1 2.1.6 9.2.8 18.1.5 18.3-.8 18.7-.6 17.1 7.9-.7 3.2-1.3 8.4-1.5 11.4l-.2 5.5-5.8.3c-5 .3-5.7.5-4.7 1.8 1 1.1.9 1.4-.5 1.4-2.7 0 0 2.7 3.3 3.3 1.5.3 4.7 1.3 7.2 2.2 8.3 3.2 21 .5 33.4-7 3.2-1.9 6.1-3.5 6.4-3.5 1.6 0-10.9 11.5-15.3 14.1-6.8 3.9-4.9 3.7 3.4-.5 7.6-3.9 16.2-11.3 21.7-18.7 3.8-5.3 5.6-5.9 9.4-3.2 2.2 1.6 2.3 1.6 1.7-.1-.4-1-.7-2-.7-2.2 0-.3-1.1-.9-2.5-1.4l-2.5-.9 2.5-4.7c1.4-2.6 2.5-5.3 2.5-6 0-.8.4-1.4.8-1.4 1.1 0 2.9 8.2 3.8 16.5l.6 6-6.9 8.6c-3.7 4.8-8.1 10.3-9.6 12.3-3.3 4.2-6.4 4.7-11.5 1.6-3.9-2.4-4.3-2.5-3.6-.5.8 2 6.7 5.5 9.3 5.5 2.6 0 2.6 0-.5 6.1-2.4 4.8-2.4 5.2-.8 7 1.6 1.8 1.5 1.9-1 2.9-1.5.5-3.4 1-4.3 1-2.5 0-9.3 2.2-9.3 3 0 1.7 3.1 3.2 5.5 2.6 4.1-1 3 1.1-3.8 7.8-7.4 7.3-20.9 16.5-32.1 22.1-10.1 4.9-16.5 5.6-22.4 2.6-6.6-3.4-33.4-26.3-40.8-34.8-8.5-10-10.4-14-10.3-22.3 0-6.5 0-6.5 1.3-3 2.6 6.9 7.9 16.6 12.7 23.1 5.5 7.5 9.8 11.7 6 5.9-7.8-12-11.3-24.2-11.3-40 0-19 2-27.2 9.9-39.4 5.5-8.6 10.3-13.9 16.2-17.7 6.6-4.2 8-3.6 3.5 1.4zm41.6 8.2c0 .2-2.3 2-5 3.8l-5.1 3.4-7-2c-3.8-1.1-6.7-2.2-6.5-2.5 1-.9 23.6-3.6 23.6-2.7zm18.2 14.2c-4.6 9.9-17.6 27.6-18 24.7-.3-2.3 3.6-10.7 8.2-17.4 2.6-4 12.4-15 13.2-15 .2 0-1.3 3.5-3.4 7.7zM154 86c0 .5-.4 1-.9 1-.6 0-1.3-.5-1.6-1-.3-.6.1-1 .9-1 .9 0 1.6.4 1.6 1zm-74.5 69.1c3.1 3.8 11.5 12 18.6 18.1 7.1 6 12.9 11.4 12.9 11.9 0 1.2-5.2 7.9-6.2 7.9-.3 0-1.7-1.7-2.9-3.8-3-4.8-15.1-17.4-21.1-21.8-4.2-3.1-4.8-4.1-5.8-9.2-.7-3.1-1.4-6.7-1.7-8-.3-1.2-.3-2.2 0-2.2s3 3.2 6.2 7.1zm103.5.9c0 .5-1 1-2.2 1-1.9 0-2-.2-.8-1 1.9-1.3 3-1.3 3 0zm38.4 29c2.7 1 2.8 1.3 2.4 5.9-.4 4.2-.3 4.8 1.2 4.4 1.2-.3 2.4.7 3.9 3 4.2 6.8 1.8 12.7-5.2 12.7-4.5 0-8.8-1.7-9.5-3.7-.2-.7 1.5-3.2 3.7-5.5 4.1-4.1 5.5-6.2 2.5-3.7-1 .8-5.5 1.3-14.2 1.4-10.2.1-14.7.7-23 2.8-5.6 1.5-10.7 2.7-11.1 2.7-.9 0-3.1-7.6-3.1-10.8 0-1.4 1.2-2.2 4.3-3.1 2.3-.7 5.1-2.2 6.3-3.2 3.4-3.1 14.4-4.9 27.4-4.4 6.4.2 12.8.9 14.4 1.5z"/><path d="M100 106.4c0 2.7 9.8 12.3 15.3 15.1 2.8 1.4 6.7 2.5 8.6 2.5 5.4 0 14.1-1.2 14.1-1.9 0-.3-3.7-.6-8.3-.7-10 0-13.8-1.8-23.2-10.5-4.3-4.1-6.5-5.6-6.5-4.5zM153.7 171.6c-1.3 1.3-.7 2.4 1.4 2.4 1.1 0 1.9-.5 1.7-1.2-.5-1.4-2.2-2.1-3.1-1.2zM254.6 95.2c-.8 3.2-.6 27.3.4 33.3.5 3.4.8-1.5.9-15.3 0-11.1-.1-20.2-.3-20.2-.2 0-.6 1-1 2.2zM39.5 234.7c.3 6 .8 13.2 1.1 16l.5 5.3h12.8l-5.4-11.2c-3-6.2-6-13.4-6.7-16-2-7.9-3-5.5-2.3 5.9zM149.7 251.8l-2.9 3.7 2.8.3c3.1.4 4.4-1.1 4.4-5.1 0-3.6-.9-3.4-4.3 1.1zM220.2 251.6c-4.9 3.8-6.8 4.4-5.2 1.5 1.9-3.6 1-4.3-1.5-1.3-1.4 1.7-2.5 3.3-2.5 3.6 0 .3 1.8.6 3.9.6 2.9 0 4.7-.7 7.1-3 1.8-1.7 3.9-3 4.7-3 .8 0 1.1-.5.8-1-1-1.6-2.8-1-7.3 2.6z"/></svg>